<?xml version="1.0" encoding="UTF-8"?>
<svg xmlns="http://www.w3.org/2000/svg" version="1.1" viewBox="0 0 119.7 64.6">
  <defs>
    <style>
      .cls-1 {
        fill: #231f20;
      }

      .cls-2 {
        fill: #ee3150;
      }
    </style>
  </defs>
  <!-- Generator: Adobe Illustrator 28.7.4, SVG Export Plug-In . SVG Version: 1.2.0 Build 166)  -->
  <g>
    <g id="Layer_1">
      <g>
        <g>
          <g>
            <path class="cls-2" d="M39.9,20.7h11.1c5.7,0,7.3,1.5,7.3,6.3s-1.7,6.3-7.3,6.3h-6.9v4.8h-4.2v-17.4ZM50.9,29.6c2.6,0,3.4-.5,3.4-2.6s-.8-2.6-3.4-2.6h-6.7v5.2h6.7Z"/>
            <path class="cls-2" d="M60.9,20.7h17.1v3.7h-12.9v3h12.2v3.6h-12.2v3.4h13.1v3.7h-17.3v-17.4Z"/>
            <path class="cls-2" d="M87.8,29.4l-7.8-8.7h5.4l5.3,6,5.4-6h5.3l-7.8,8.7,8.3,8.7h-5.5l-5.7-6.3-5.7,6.3h-5.5l8.4-8.7Z"/>
          </g>
          <polygon class="cls-2" points="17.7 38.1 21.9 38.1 28 25.5 33.8 38.1 38.3 38.1 28 17.4 17.7 38.1"/>
          <polyline class="cls-2" points="28 25.4 26.5 28.5 29.2 34.5 30.7 31.4 28 25.5"/>
        </g>
        <g>
          <path class="cls-1" d="M18.1,42.7h3.2c1.4,0,1.8.4,1.8,1.4s-.2,1-.7,1.2h0c.6.1.7.3.7,1.1v.8h-1.1v-.6c0-.6,0-.8-.9-.8h-1.8v1.4h-1.1v-4.4ZM21.2,44.8c.6,0,.8-.1.8-.6s-.2-.6-.8-.6h-1.9v1.2h1.9Z"/>
          <path class="cls-1" d="M36.3,42.7h1.4l2.3,4.4h-1.3l-.4-.8h-2.7l-.4.8h-1.2l2.3-4.4ZM37.9,45.4l-.9-1.7-.9,1.7h1.8Z"/>
          <path class="cls-1" d="M50.7,44.9c0-1.9.5-2.3,2.8-2.3s2.6.4,2.6,1.6h0c0,.1-1.1.1-1.1.1h0c0-.6-.2-.7-1.6-.7s-1.6.1-1.6,1.3.2,1.3,1.6,1.3,1.6-.2,1.6-.7h0c0,0,1.1,0,1.1,0v.2c0,1.2-.5,1.6-2.6,1.6s-2.8-.4-2.8-2.3Z"/>
          <path class="cls-1" d="M67.4,42.7h1.1v4.4h-1.1v-4.4Z"/>
          <path class="cls-1" d="M80,42.7h1.6l2.7,3.3h0v-3.3h1.1v4.4h-1.6l-2.8-3.4h0v3.4h-1.1v-4.4Z"/>
          <path class="cls-1" d="M96.7,44.9c0-1.9.5-2.3,2.8-2.3s2.6.3,2.6,1.5h0c0,0-1.1,0-1.1,0h0c0-.5-.2-.6-1.5-.6s-1.6.2-1.6,1.3.1,1.3,1.6,1.3,1.6-.1,1.6-.7h0c0,0-1.8,0-1.8,0v-.9h2.9v1c0,1.1-.2,1.6-2.7,1.6s-2.8-.4-2.8-2.3Z"/>
        </g>
      </g>
    </g>
  </g>
</svg>