<?xml version="1.0" encoding="UTF-8"?>
<svg id="Layer_1" xmlns="http://www.w3.org/2000/svg" version="1.1" viewBox="0 0 1920 1174">
  <!-- Generator: Adobe Illustrator 29.1.0, SVG Export Plug-In . SVG Version: 2.1.0 Build 142)  -->
  <defs>
    <style>
      .st0 {
        fill: #fff;
      }
    </style>
  </defs>
  <path class="st0" d="M96.26,880.59V293.41h421.24v111.48H223.05v122.54h248.49v111.48h-248.49v130.2h298.7v111.48H96.26Z"/>
  <path class="st0" d="M587.27,880.59V293.41h224.66c177.01,0,319.12,106.38,319.12,292.74s-142.97,294.45-319.12,294.45h-224.66ZM714.07,764.01h91.06c109.78,0,194.03-57.87,194.03-177.86s-83.4-176.16-194.03-176.16h-91.06v354.01Z"/>
  <path class="st0" d="M1195.72,880.59V293.41h126.8v587.19h-126.8Z"/>
  <path class="st0" d="M1562.5,880.59v-470.6h-179.56v-116.59h485.07v116.59h-179.56v470.6h-125.95Z"/>
</svg>